#!OML:ASF Y:\EmotionMaleHayes\Project 1\Capture day 1\Session 1\Male1.ASF
:FULLY-SPECIFIED
:DEGREES
2215
root -0.685186 16.9005 14.2796 1031 257.01 -313.319
lowerback 6.60133 1.43896 -15.5423
upperback 5.60366 0.591109 -7.586
thorax 2.15244 -0.324628 0.591337
lowerneck -27.9648 4.53312 4.27162
upperneck 28.4748 5.04184 -1.94884
head 14.6927 2.21759 -0.511605
rclavicle -1.11319e-014 -2.48083e-013
rhumerus -37.7629 6.42767 -76.2451
rradius 70.8409
rwrist 0.640422
rhand -15.7672 -26.6726
rfingers 7.12502
rthumb 10.4247 -56.3942
lclavicle -1.11319e-014 -2.48083e-013
lhumerus -11.0596 -11.8552 60.9593
lradius 53.9275
lwrist 8.99851
lhand -22.709 -26.5483
lfingers 7.12502
lthumb 3.72416 3.39889
rfemur -3.85831 -18.3742 21.7099
rtibia 15.412
rfoot -12.8108 10.9473
rtoes 4.70392
lfemur 17.3775 4.98062 0.850315
ltibia 31.0128
lfoot -23.9461 30.384
ltoes -0.307507
2216
root -0.781538 16.9162 14.2581 1029.02 256.583 -311.52
lowerback 6.96119 1.55434 -14.4839
upperback 5.37874 0.743216 -7.17175
thorax 1.67891 -0.168852 0.467299
lowerneck -26.7357 4.07872 3.44933
upperneck 28.2152 4.71133 -1.74029
head 14.278 2.02481 -0.380032
rclavicle 1.11319e-014 1.145e-013
rhumerus -38.3641 6.39267 -75.9127
rradius 72.0505
rwrist -0.016448
rhand -15.468 -27.0773
rfingers 7.12502
rthumb 10.7133 -56.7841
lclavicle 1.11319e-014 1.145e-013
lhumerus -12.4345 -12.7888 62.8051
lradius 53.0809
lwrist 8.63357
lhand -22.3639 -26.6395
lfingers 7.12502
lthumb 4.05741 3.30165
rfemur -2.94938 -17.9264 22.36
rtibia 14.9099
rfoot -13.0247 10.4407
rtoes 3.57765
lfemur 16.2455 4.79883 1.87388
ltibia 33.9824
lfoot -21.6264 28.6307
ltoes 6.97519
2217
root -0.87149 16.9213 14.2491 1029.39 256.354 -311.824
lowerback 7.02688 1.51947 -13.8109
upperback 5.27316 0.72916 -7.06272
thorax 1.52652 -0.13831 0.227607
lowerneck -26.4457 3.98101 3.39595
upperneck 28.1517 4.61568 -1.79125
head 14.1875 1.97232 -0.415982
rclavicle -2.46493e-014 -9.85972e-014
rhumerus -38.3911 6.6374 -75.9918
rradius 73.2786
rwrist -0.483669
rhand -14.9439 -27.4422
rfingers 7.12502
rthumb 11.2188 -57.1222
lclavicle -2.46493e-014 -9.85972e-014
lhumerus -13.6469 -13.0264 64.0461
lradius 52.2753
lwrist 8.35089
lhand -22.0714 -26.5844
lfingers 7.12502
lthumb 4.33979 3.35117
rfemur -2.58233 -17.9014 22.4721
rtibia 14.7598
rfoot -12.6989 10.4829
rtoes 2.33173
lfemur 14.8565 4.70144 2.1277
ltibia 36.5646
lfoot -16.7261 28.8105
ltoes 8.44313
2218
root -0.950584 16.9093 14.2483 1032.85 255.753 -314.997
lowerback 6.75176 1.33561 -13.524
upperback 5.37127 0.557343 -7.21338
thorax 1.80247 -0.234803 -0.0742749
lowerneck -27.6794 4.60975 4.57593
upperneck 28.3333 5.1517 -2.32183
head 14.5993 2.24464 -0.697616
rclavicle -1.27222e-014 -6.36111e-015
rhumerus -37.2234 7.3786 -76.774
rradius 74.4457
rwrist -0.642237
rhand -14.3742 -27.8671
rfingers 7.12502
rthumb 11.7683 -57.5165
lclavicle -1.27222e-014 -6.36111e-015
lhumerus -14.5541 -11.8328 64.3092
lradius 51.581
lwrist 7.89139
lhand -21.9387 -26.5711
lfingers 7.12502
lthumb 4.46798 3.36174
rfemur -2.98861 -17.9461 22.4942
rtibia 15.1586
rfoot -13.6206 11.2497
rtoes 1.16029
lfemur 13.5084 5.30245 2.10331
ltibia 39.1034
lfoot -13.4012 28.2302
ltoes 11.9914
2219
root -1.03789 16.8978 14.2367 1031.31 254.949 -313.464
lowerback 6.95643 1.5726 -11.9902
upperback 5.07032 0.943226 -6.70761
thorax 1.32466 0.0482073 -0.381673
lowerneck -26.0992 3.97666 3.29401
upperneck 27.801 4.67803 -1.84061
head 13.9652 1.9888 -0.412264
rclavicle 2.3059e-014 7.95139e-014
rhumerus -37.9835 7.16476 -76.1897
rradius 75.8201
rwrist -0.766448
rhand -13.8173 -28.2983
rfingers 7.12502
rthumb 12.3053 -57.9162
lclavicle 2.3059e-014 7.95139e-014
lhumerus -16.0579 -12.3668 66.2779
lradius 50.7421
lwrist 7.35478
lhand -21.8512 -26.6126
lfingers 7.12502
lthumb 4.55248 3.31852
rfemur -2.46763 -17.7022 23.4779
rtibia 14.827
rfoot -14.0521 11.1853
rtoes 1.35511
lfemur 12.2271 5.36059 3.49485
ltibia 41.8254
lfoot -10.2462 27.069
ltoes 15.163
2220
root -1.12403 16.886 14.2287 1030.61 254.281 -312.791
lowerback 7.37397 1.41921 -11.0543
upperback 4.99848 0.7451 -6.4619
thorax 1.02968 -0.00433723 -0.619312
lowerneck -25.9378 4.08002 3.29074
upperneck 27.5478 4.74932 -1.59318
head 13.818 2.0617 -0.301559
rclavicle 1.66979e-014 0
rhumerus -37.4132 7.77569 -76.5714
rradius 76.774
rwrist -0.621106
rhand -13.0322 -28.7812
rfingers 7.12502
rthumb 13.0622 -58.3521
lclavicle 1.66979e-014 0
lhumerus -17.2784 -11.7073 67.0543
lradius 49.9039
lwrist 7.10663
lhand -21.7694 -26.4223
lfingers 7.12502
lthumb 4.63142 3.50712
rfemur -1.92674 -17.5594 24.0865
rtibia 14.5592
rfoot -14.0302 11.4668
rtoes 3.05355
lfemur 10.9879 5.44169 4.52748
ltibia 44.4266
lfoot -7.4129 25.9732
ltoes 18.2109
2221
root -1.21394 16.8692 14.2273 1030.19 253.666 -312.383
lowerback 7.62258 1.11033 -10.1873
upperback 5.34533 0.388571 -6.36972
thorax 1.27888 -0.178505 -0.974034
lowerneck -27.4549 4.54942 4.2518
upperneck 27.8014 5.08387 -1.92634
head 14.2912 2.25222 -0.499289
rclavicle 3.73715e-014 9.54166e-015
rhumerus -35.7892 8.43068 -77.234
rradius 77.4343
rwrist -0.379648
rhand -12.159 -29.2248
rfingers 7.12502
rthumb 13.9038 -58.7399
lclavicle 3.73715e-014 9.54166e-015
lhumerus -17.8193 -10.1773 67.2551
lradius 49.1271
lwrist 6.83967
lhand -21.6853 -26.1226
lfingers 7.12502
lthumb 4.71262 3.80497
rfemur -1.42099 -17.702 24.5361
rtibia 14.4291
rfoot -14.1361 11.9517
rtoes 3.41789
lfemur 9.8636 5.486 5.38005
ltibia 46.7403
lfoot -5.17944 24.5782
ltoes 20.8902
2222
root -1.29881 16.8474 14.2293 1029.2 252.901 -311.411
lowerback 7.96773 1.50288 -8.52686
upperback 4.99246 0.990026 -5.85211
thorax 0.685077 0.20403 -1.38293
lowerneck -25.7359 3.80836 2.92618
upperneck 27.3951 4.51117 -1.57299
head 13.6936 1.92758 -0.28277
rclavicle 2.54444e-014 5.08889e-014
rhumerus -36.6243 7.90824 -76.4243
rradius 78.3382
rwrist -0.531122
rhand -11.909 -29.2224
rfingers 7.12502
rthumb 14.1447 -58.7209
lclavicle 2.54444e-014 5.08889e-014
lhumerus -19.2907 -10.5167 69.3625
lradius 48.3709
lwrist 6.38408
lhand -21.6503 -25.9081
lfingers 7.12502
lthumb 4.74645 4.01877
rfemur -0.963104 -17.677 25.2924
rtibia 14.3775
rfoot -14.2726 12.2722
rtoes 3.54333
lfemur 8.73091 5.60642 6.57538
ltibia 49.0251
lfoot -3.35847 22.7387
ltoes 23.3119
2223
root -1.37838 16.8241 14.2362 1027.94 252.05 -310.155
lowerback 8.45078 1.42055 -7.09939
upperback 5.01295 0.955578 -5.47155
thorax 0.447788 0.231651 -1.77613
lowerneck -25.7434 3.87391 2.90775
upperneck 27.4216 4.60431 -1.55027
head 13.7075 1.96822 -0.252619
rclavicle -3.97569e-014 -1.20861e-013
rhumerus -36.0456 8.31886 -76.5502
rradius 79.0064
rwrist -0.634205
rhand -12.0758 -28.9254
rfingers 7.12502
rthumb 13.984 -58.4351
lclavicle -3.97569e-014 -1.20861e-013
lhumerus -20.3216 -9.4763 70.2838
lradius 47.5688
lwrist 6.17822
lhand -21.8768 -26.0134
lfingers 7.12502
lthumb 4.52769 3.91821
rfemur -0.562113 -17.3986 26.2468
rtibia 14.3128
rfoot -14.2463 12.4485
rtoes 3.98032
lfemur 7.45914 5.84013 8.00134
ltibia 51.3739
lfoot -3.22913 19.6149
ltoes 22.5723
2224
root -1.45762 16.8046 14.2447 1027.25 251.412 -309.46
lowerback 8.8965 1.36087 -6.05004
upperback 5.03701 0.93403 -5.11527
thorax 0.232761 0.251623 -1.99092
lowerneck -26.049 3.89334 3.04266
upperneck 27.7342 4.58752 -1.61149
head 13.9085 1.95899 -0.297062
rclavicle -3.73715e-014 -8.5875e-014
rhumerus -35.5153 8.7238 -76.6531
rradius 79.8762
rwrist -0.565097
rhand -11.7417 -28.1116
rfingers 7.12502
rthumb 14.3059 -57.5987
lclavicle -3.73715e-014 -8.5875e-014
lhumerus -21.3568 -8.36104 71.1857
lradius 46.7719
lwrist 5.98344
lhand -22.1762 -26.2028
lfingers 7.12502
lthumb 4.2386 3.73479
rfemur -0.126831 -17.1051 26.8761
rtibia 14.1368
rfoot -14.1257 12.5743
rtoes 3.70392
lfemur 6.14643 6.10656 9.11796
ltibia 53.4675
lfoot -3.01218 16.1073
ltoes 19.7745
2225
root -1.53597 16.7897 14.2542 1027.13 250.931 -309.297
lowerback 9.20434 1.35471 -5.24652
upperback 5.09727 0.979609 -4.83257
thorax 0.130859 0.293641 -2.15214
lowerneck -26.117 3.8307 3.08398
upperneck 27.8012 4.41973 -1.44076
head 13.9427 1.91611 -0.266872
rclavicle 9.54166e-015 -3.18055e-015
rhumerus -34.8837 8.99072 -76.7426
rradius 80.7034
rwrist -0.621748
rhand -10.988 -26.9608
rfingers 7.12502
rthumb 15.0321 -56.3951
lclavicle 9.54166e-015 -3.18055e-015
lhumerus -22.2967 -7.32368 71.9581
lradius 46.107
lwrist 5.65893
lhand -22.4835 -26.0278
lfingers 7.12502
lthumb 3.9419 3.91551
rfemur 0.290702 -16.9485 27.2143
rtibia 13.8754
rfoot -13.9555 12.8131
rtoes 3.81481
lfemur 4.86992 6.40551 9.92954
ltibia 55.1059
lfoot -3.09472 12.3959
ltoes 12.6214
2226
root -1.61794 16.7777 14.2703 1027.15 250.543 -309.155
lowerback 9.25554 1.33417 -4.47507
upperback 5.21164 1.0317 -4.54799
thorax 0.227362 0.334935 -2.29094
lowerneck -26.0489 3.71532 2.94802
upperneck 27.7025 4.23988 -1.2219
head 13.8716 1.85951 -0.192833
rclavicle 0 -4.45278e-014
rhumerus -34.1329 9.25414 -76.7513
rradius 81.4966
rwrist -0.795899
rhand -10.5214 -26.9558
rfingers 7.12502
rthumb 15.4815 -56.3559
lclavicle 0 -4.45278e-014
lhumerus -23.2104 -6.15784 72.7352
lradius 45.553
lwrist 5.51291
lhand -22.701 -25.7694
lfingers 7.12502
lthumb 3.73186 4.17766
rfemur 0.577766 -17.034 27.3986
rtibia 13.7271
rfoot -13.9313 13.3094
rtoes 4.79544
lfemur 3.52103 6.70591 10.5484
ltibia 56.3631
lfoot -2.76857 9.21039
ltoes 6.20517
2227
root -1.69872 16.7733 14.2896 1027.25 250.451 -308.91
lowerback 9.56624 1.27069 -4.08735
upperback 4.97767 0.972122 -4.23204
thorax -0.187776 0.325773 -2.17948
lowerneck -25.8909 3.72067 2.87622
upperneck 27.9447 4.25822 -1.17495
head 13.9399 1.86059 -0.161016
rclavicle -7.95139e-016 -1.59028e-014
rhumerus -34.0261 9.84951 -76.7925
rradius 82.4595
rwrist -0.937052
rhand -10.6452 -27.7727
rfingers 7.12502
rthumb 15.3622 -57.182
lclavicle -7.95139e-016 -1.59028e-014
lhumerus -24.647 -4.97195 73.5854
lradius 44.9952
lwrist 5.89174
lhand -23.0633 -23.8572
lfingers 7.12502
lthumb 3.38201 6.09576
rfemur 0.672686 -17.3803 27.3252
rtibia 13.5469
rfoot -13.8741 13.905
rtoes 5.35653
lfemur 1.79395 6.96469 10.7775
ltibia 57.5725
lfoot -2.91746 6.68423
ltoes 2.29119
2228
root -1.78053 16.7755 14.3085 1027.72 250.467 -309.004
lowerback 10.3705 1.15268 -4.26702
upperback 4.30732 0.75547 -3.80038
thorax -1.33588 0.245791 -1.62496
lowerneck -25.2519 3.8113 3.02401
upperneck 28.3956 4.34602 -1.25489
head 14.0108 1.88993 -0.211898
rclavicle -8.74653e-015 9.54166e-015
rhumerus -34.4836 11.0736 -76.8996
rradius 83.3202
rwrist -0.940096
rhand -11.0749 -27.8509
rfingers 7.12502
rthumb 14.9483 -57.2915
lclavicle -8.74653e-015 9.54166e-015
lhumerus -26.8538 -3.47727 74.3572
lradius 44.4791
lwrist 6.14385
lhand -24.0838 -25.4205
lfingers 7.12502
lthumb 2.39643 4.5458
rfemur 0.678952 -17.8038 27.121
rtibia 13.092
rfoot -13.8427 14.4112
rtoes 6.40108
lfemur -0.0539852 7.34557 10.7813
ltibia 58.7933
lfoot -3.25226 4.81605
ltoes 1.08791
